<svg width="1155" height="818" viewBox="0 0 1155 818" fill="none" xmlns="http://www.w3.org/2000/svg">
<path fill-rule="evenodd" clip-rule="evenodd" d="M577.501 120C535.342 119.998 494.886 136.635 464.926 166.296C434.964 195.956 417.922 236.243 417.5 278.399C417.5 387.803 558.028 509.59 564.499 515.198C568.122 518.296 572.732 520 577.501 520C582.268 520 586.877 518.297 590.5 515.199C597.5 509.999 737.5 387.999 737.5 278.399C737.079 236.243 720.036 195.956 690.076 166.296C660.114 136.635 619.66 119.998 577.501 120ZM656.066 251.206L656.844 251.888L675.549 268.288C678.383 270.762 679.801 273.589 679.447 276.77V276.806C679.447 283.168 674.133 288.151 668.11 288.151H656.774L657.022 344.773C657.093 357.321 646.926 367.5 634.349 367.5H600.728C597.048 367.5 593.942 365.05 592.967 361.699C592.665 360.856 592.5 359.947 592.5 359V335C592.5 333.858 592.261 332.772 591.83 331.789C590.516 329.118 587.758 327.278 584.569 327.278H570.431C567.243 327.278 564.486 329.116 563.172 331.786C562.74 332.77 562.5 333.857 562.5 335V359C562.5 359.948 562.335 360.858 562.032 361.702C561.056 365.052 557.951 367.5 554.272 367.5H520.845C508.34 367.5 498.172 357.356 498.172 344.879V288.187H486.836C480.46 288.187 475.5 283.238 475.5 276.841C475.5 273.66 476.563 270.832 479.043 268.358L569.839 189.328C572.318 186.853 575.153 186.5 577.632 186.5C580.112 186.5 582.946 187.207 585.072 188.974L622.392 221.702L622.836 222.092L656.066 251.206Z" fill="#E03121"/>
<path d="M120 585.517H152.863L174.065 630.597H174.913L196.115 585.517H228.978L189.119 661.589V696.483H159.86V661.589L120 585.517Z" fill="#E03121"/>
<path d="M336.168 641C336.168 653.354 333.818 663.775 329.118 672.263C324.418 680.716 318.076 687.127 310.089 691.498C302.103 695.833 293.198 698 283.375 698C273.481 698 264.54 695.815 256.554 691.444C248.604 687.037 242.278 680.607 237.578 672.155C232.914 663.666 230.582 653.281 230.582 641C230.582 628.646 232.914 618.243 237.578 609.791C242.278 601.302 248.604 594.891 256.554 590.556C264.54 586.185 273.481 584 283.375 584C293.198 584 302.103 586.185 310.089 590.556C318.076 594.891 324.418 601.302 329.118 609.791C333.818 618.243 336.168 628.646 336.168 641ZM305.849 641C305.849 634.354 304.983 628.755 303.252 624.203C301.556 619.616 299.029 616.148 295.672 613.8C292.35 611.416 288.251 610.224 283.375 610.224C278.498 610.224 274.382 611.416 271.025 613.8C267.703 616.148 265.176 619.616 263.445 624.203C261.749 628.755 260.901 634.354 260.901 641C260.901 647.646 261.749 653.263 263.445 657.851C265.176 662.402 267.703 665.87 271.025 668.254C274.382 670.602 278.498 671.776 283.375 671.776C288.251 671.776 292.35 670.602 295.672 668.254C299.029 665.87 301.556 662.402 303.252 657.851C304.983 653.263 305.849 647.646 305.849 641Z" fill="#E03121"/>
<path d="M414.046 585.517H443.516L443.516 622.144L443.516 656.605C443.516 665.057 441.538 672.372 437.58 678.548C433.658 684.689 428.18 689.439 421.148 692.798C414.116 696.122 405.954 697.783 396.66 697.783C387.296 697.783 379.098 696.122 372.066 692.798C365.034 689.439 359.556 684.689 355.634 678.548C351.747 672.372 349.803 665.057 349.803 656.605L349.804 622.144L349.803 585.517H379.274L379.274 622.144L379.274 654.004C379.274 657.435 380.016 660.506 381.501 663.215C382.985 665.888 385.034 667.983 387.649 669.5C390.299 671.017 393.303 671.776 396.66 671.776C400.052 671.776 403.056 671.017 405.671 669.5C408.286 667.983 410.335 665.888 411.819 663.215C413.304 660.506 414.046 657.435 414.046 654.004L414.046 622.144L414.046 585.517Z" fill="#E03121"/>
<path d="M457.523 696.483V585.517H504.38C512.436 585.517 519.486 587.016 525.529 590.014C531.571 593.012 536.271 597.329 539.628 602.964C542.985 608.599 544.663 615.354 544.663 623.228C544.663 631.175 542.932 637.875 539.469 643.33C536.041 648.784 531.218 652.902 524.999 655.683C518.815 658.465 511.588 659.856 503.319 659.856H475.333V636.449H497.383C500.846 636.449 503.796 636.015 506.235 635.148C508.708 634.245 510.599 632.818 511.906 630.868C513.249 628.917 513.92 626.371 513.92 623.228C513.92 620.049 513.249 617.467 511.906 615.48C510.599 613.457 508.708 611.976 506.235 611.037C503.796 610.062 500.846 609.574 497.383 609.574H486.994V696.483H457.523ZM521.129 645.551L548.268 696.483H516.253L489.75 645.551H521.129Z" fill="#E03121"/>
<path d="M586.961 696.483V585.517H616.432V628.863H655.444V585.517H684.915V696.483H655.444V653.137H616.432V696.483H586.961Z" fill="#E03121"/>
<path d="M804.07 641C804.07 653.354 801.72 663.775 797.021 672.263C792.321 680.716 785.978 687.127 777.992 691.498C770.006 695.833 761.101 698 751.277 698C741.383 698 732.443 695.815 724.457 691.444C716.506 687.037 710.18 680.607 705.481 672.155C700.816 663.666 698.484 653.281 698.484 641C698.484 628.646 700.816 618.243 705.481 609.791C710.18 601.302 716.506 594.891 724.457 590.556C732.443 586.185 741.383 584 751.277 584C761.101 584 770.006 586.185 777.992 590.556C785.978 594.891 792.321 601.302 797.021 609.791C801.72 618.243 804.07 628.646 804.07 641ZM773.751 641C773.751 634.354 772.886 628.755 771.154 624.203C769.458 619.616 766.931 616.148 763.574 613.8C760.253 611.416 756.154 610.224 751.277 610.224C746.401 610.224 742.284 611.416 738.927 613.8C735.605 616.148 733.079 619.616 731.347 624.203C729.651 628.755 728.803 634.354 728.803 641C728.803 647.646 729.651 653.263 731.347 657.851C733.079 662.402 735.605 665.87 738.927 668.254C742.284 670.602 746.401 671.776 751.277 671.776C756.154 671.776 760.253 670.602 763.574 668.254C766.931 665.87 769.458 662.402 771.154 657.851C772.886 653.263 773.751 647.646 773.751 641Z" fill="#E03121"/>
<path d="M817.706 585.517H854.385L879.616 648.369H880.888L906.118 585.517H942.798V696.483H913.963V632.331H913.115L888.945 695.616H871.559L847.389 631.897H846.541V696.483H817.706V585.517Z" fill="#E03121"/>
<path d="M956.765 696.483V585.517H1035V609.791H986.235V628.863H1030.97V653.137H986.235V672.209H1034.79V696.483H956.765Z" fill="#E03121"/>
</svg>
